
	<svg
		width="42"
		height="45"
		viewBox="0 0 42 45"
		fill="none"
		xmlns="http://www.w3.org/2000/svg"
	>
		<rect
			width="41.2213"
			height="44.1704"
			transform="translate(0.689453 0.180664)"
			fill="white"
		/>
		<path
			d="M29.8883 3.86133H12.7128C7.96987 3.86133 4.125 7.98128 4.125 13.0635V31.4678C4.125 36.55 7.96987 40.67 12.7128 40.67H29.8883C34.6312 40.67 38.4761 36.55 38.4761 31.4678V13.0635C38.4761 7.98128 34.6312 3.86133 29.8883 3.86133Z"
			fill="black"
			stroke="black"
			stroke-width="2"
			stroke-linecap="round"
			stroke-linejoin="round"
		/>
		<path
			d="M28.17 21.1061C28.382 22.6378 28.1378 24.2021 27.4723 25.5766C26.8067 26.951 25.7537 28.0655 24.4629 28.7617C23.1721 29.4579 21.7094 29.7002 20.2827 29.4542C18.856 29.2082 17.538 28.4864 16.5162 27.3915C15.4943 26.2966 14.8207 24.8843 14.5912 23.3555C14.3616 21.8267 14.5877 20.2593 15.2374 18.8762C15.8871 17.4931 16.9272 16.3647 18.2099 15.6515C19.4926 14.9383 20.9524 14.6767 22.3819 14.9039C23.8399 15.1355 25.1898 15.8636 26.2321 16.9804C27.2744 18.0973 27.9538 19.5437 28.17 21.1061Z"
			fill="white"
			stroke="black"
			stroke-width="2"
			stroke-linecap="round"
			stroke-linejoin="round"
		/>
		<path
			d="M30.7471 12.1436H30.7656"
			stroke="white"
			stroke-width="2"
			stroke-linecap="round"
			stroke-linejoin="round"
		/>
	</svg>

